<svg width="24" height="25" viewBox="0 0 24 25" fill="none" xmlns="http://www.w3.org/2000/svg">
<path d="M11.499 1.67188C11.499 1.25766 11.8348 0.921875 12.249 0.921875C12.6632 0.921875 12.999 1.25766 12.999 1.67188V10.3612L17.5523 5.8079C17.8452 5.51501 18.3201 5.51501 18.613 5.8079C18.9059 6.10079 18.9059 6.57567 18.613 6.86856L14.0597 11.4219H22.749C23.1632 11.4219 23.499 11.7577 23.499 12.1719C23.499 12.5861 23.1632 12.9219 22.749 12.9219H14.0597L18.613 17.4752C18.9059 17.7681 18.9059 18.2429 18.613 18.5358C18.3201 18.8287 17.8452 18.8287 17.5523 18.5358L12.999 13.9826V22.6719C12.999 23.0861 12.6632 23.4219 12.249 23.4219C11.8348 23.4219 11.499 23.0861 11.499 22.6719V13.9825L6.94571 18.5358C6.65282 18.8287 6.17794 18.8287 5.88505 18.5358C5.59216 18.2429 5.59216 17.7681 5.88505 17.4752L10.4383 12.9219H1.74902C1.33481 12.9219 0.999023 12.5861 0.999023 12.1719C0.999023 11.7577 1.33481 11.4219 1.74902 11.4219H10.4383L5.88504 6.86858C5.59215 6.57569 5.59215 6.10081 5.88504 5.80792C6.17794 5.51502 6.65281 5.51502 6.94571 5.80792L11.499 10.3612V1.67188Z" fill="#1F1F1F"/>
</svg>
